# AST/ASF file generated using VICON BodyLanguage
# -----------------------------------------------
:version 1.10
:name VICON
:units
  mass 1.0
  length 0.45
  angle deg
:documentation
   .ast/.asf automatically generated from VICON data using
   VICON BodyBuilder and BodyLanguage model FoxedUp or BRILLIANT.MOD
:root
   order TX TY TZ RX RY RZ
   axis XYZ
   position 0 0 0  
   orientation 0 0 0 
:bonedata
  begin
     id 1 
     name lhipjoint
     direction 0.577973 -0.728611 0.367523 
     length 2.48544 
     axis 0 0 0  XYZ
  end
  begin
     id 2 
     name lfemur
     direction 0.34202 -0.939693 0  
     length 7.1921  
     axis 0 0 20  XYZ
    dof rx ry rz
    limits (-160.0 20.0)
           (-70.0 70.0)
           (-60.0 70.0)
  end
  begin
     id 3 
     name ltibia
     direction 0.34202 -0.939693 0   
     length 7.71059   
     axis 0 0 20   XYZ
    dof rx
    limits (-10.0 170.0)
  end
  begin
     id 4 
     name lfoot
     direction 0.089538 -0.246004 0.965124   
     length 2.19909   
     axis -90 7.62852e-016 20   XYZ
    dof rx rz
    limits (-45.0 90.0)
           (-70.0 20.0)
  end
  begin
     id 5 
     name ltoes
     direction 1.53544e-011 -4.21829e-011 1   
     length 1.10116   
     axis -90 7.62852e-016 20   XYZ
    dof rx
    limits (-90.0 20.0)
  end
  begin
     id 6 
     name rhipjoint
     direction -0.554414 -0.743062 0.374812   
     length 2.4371  
     axis 0 0 0  XYZ 
  end
  begin
     id 7 
     name rfemur
     direction -0.34202 -0.939693 0   
     length 7.47254   
     axis 0 0 -20   XYZ
    dof rx ry rz
    limits (-160.0 20.0)
           (-70.0 70.0)
           (-70.0 60.0)
  end
  begin
     id 8 
     name rtibia
     direction -0.34202 -0.939693 0   
     length 7.65855   
     axis 0 0 -20   XYZ
    dof rx
    limits (-10.0 170.0)
 end
 begin
     id 9 
     name rfoot
     direction -0.133779 -0.367555 0.92033   
     length 2.43006  
     axis -90 -7.62852e-016 -20   XYZ
    dof rx rz
    limits (-45.0 90.0)
           (-20.0 70.0)
  end
  begin
     id 10 
     name rtoes
     direction -1.53563e-011 -4.21889e-011 1   
     length 1.19625   
     axis -90 -7.62852e-016 -20   XYZ
    dof rx
    limits (-90.0 20.0)
  end
  begin
     id 11 
     name lowerback
     direction 0.0249066 0.998043 -0.0573585   
     length 2.08485   
     axis 0 0 0   XYZ
    dof rx ry rz
    limits (-20.0 45.0)
           (-30.0 30.0)
           (-30.0 30.0)
  end
  begin
     id 12 
     name upperback
     direction 0.0237884 0.999673 0.00943178   
     length 2.08515   
     axis 0 0 0   XYZ
    dof rx ry rz
    limits (-20.0 45.0)
           (-30.0 30.0)
           (-30.0 30.0)
  end
  begin
     id 13 
     name thorax
     direction 0.0106671 0.999301 0.0358174   
     length 2.09037   
     axis 0 0 0   XYZ
    dof rx ry rz
    limits (-20.0 45.0)
           (-30.0 30.0)
           (-30.0 30.0)
  end
  begin
     id 14 
     name lowerneck
     direction -0.0580016 0.987052 0.149546   
     length 1.84454   
     axis 0 0 0   XYZ
    dof rx ry rz
    limits (-20.0 45.0)
           (-30.0 30.0)
           (-30.0 30.0)
  end
  begin
     id 15 
     name upperneck
     direction 0.079456 0.981963 -0.171567   
     length 1.88141   
     axis 0 0 0   XYZ
    dof rx ry rz
    limits (-20.0 45.0)
           (-30.0 30.0)
           (-30.0 30.0)
  end
  begin
     id 16
     name head
     direction 0.0262167 0.9967 -0.0768276  
     length 1.89541  
     axis 0 0 0   XYZ
    dof rx ry rz
    limits (-20.0 45.0)
           (-30.0 30.0)
           (-30.0 30.0)
  end
  begin
     id 17 
     name lclavicle
     direction 0.946135 0.322134 -0.0325326  
     length 3.949  
     axis 0 0 0   XYZ
    dof ry rz
    limits (-20.0 10.0)
           (0.0 20.0)
  end
  begin
     id 18 
     name lhumerus
     direction 1 -4.48964e-011 1.94005e-028   
     length 5.10995   
     axis 180 -30 -90   XYZ
    dof rx ry rz
    limits (-60.0 90.0)
           (-90.0 90.0)
           (-90.0 90.0)
  end
  begin
     id 19
     name lradius
     direction 1 -4.48976e-011 2.87852e-027   
     length 3.21207   
     axis 180 -30 -90   XYZ
    dof rx
    limits (-10.0 170.0)
  end
  begin
     id 20
     name lwrist
     direction 1 -4.48963e-011 1.9975e-027   
     length 1.60604   
     axis 2.96054e-016 90 90   XYZ
    dof ry
    limits (-180.0 0.0)
 end
  begin
     id 21 
     name lhand
     direction 1 -4.48919e-011 4.00227e-027   
     length 0.63349   
     axis -2.5488e-015 90 90   XYZ
    dof rx rz
    limits (-90.0 90.0)
           (-45.0 45.0)
  end
  begin
     id 22 
     name lfingers
     direction 1 -4.49037e-011 7.9652e-027   
     length 0.510736   
     axis -5.0975e-015 90 90   XYZ
    dof rx
    limits (0.0 90.0)
  end
  begin
     id 23
     name lthumb
     direction 0.707107 -6.34922e-011 0.707107   
     length 0.733318   
     axis -90 45 -4.48553e-014   XYZ
    dof rx rz
    limits (-45.0 45.0)
           (-45.0 45.0)
  end
  begin
     id 24 
     name rclavicle
     direction -0.940085 0.328911 -0.0897654   
     length 3.93848  
     axis 0 0 0   XYZ 
    dof ry rz
    limits (-10.0 20.0)
           (-20.0 0.0)
  end
  begin
     id 25 
     name rhumerus
     direction -1 -4.48958e-011 3.02044e-027  
     length 5.25109   
     axis 180 30 90   XYZ
    dof rx ry rz
    limits (-90.0 60.0)
           (-90.0 90.0)
           (-90.0 90.0)
  end
  begin
     id 26 
     name rradius
     direction -1 -4.4897e-011 9.78352e-028   
     length 3.28364   
     axis 180 30 90   XYZ
    dof rx
    limits (-10.0 170.0)
  end
  begin
     id 27 
     name rwrist
     direction -1 -4.48943e-011 1.99918e-027   
     length 1.64182   
     axis 2.96054e-016 -90 -90   XYZ
    dof ry
    limits (-180.0 0.0)
  end
  begin
     id 28
     name rhand
     direction -1 -4.49024e-011 3.98478e-027   
     length 0.599745   
     axis -2.5488e-015 -90 -90   XYZ
    dof rx rz
    limits (-90.0 90.0)
           (-45.0 45.0)
  end
  begin
     id 29
     name rfingers
     direction -1 -4.48914e-011 8.00621e-027   
     length 0.48353   
     axis -5.0975e-015 -90 -90   XYZ
    dof rx
    limits (0.0 90.0)
  end
  begin
     id 30
     name rthumb
     direction -0.707107 -6.34992e-011 0.707107   
     length 0.694255   
     axis -90 -45 4.48553e-014   XYZ
    dof rx rz
    limits (-45.0 45.0)
           (-45.0 45.0)
  end
:hierarchy
  begin
    root lhipjoint rhipjoint lowerback
    lhipjoint lfemur
    lfemur ltibia
    ltibia lfoot
    lfoot ltoes
    rhipjoint rfemur
    rfemur rtibia
    rtibia rfoot
    rfoot rtoes
    lowerback upperback
    upperback thorax
    thorax lowerneck lclavicle rclavicle
    lowerneck upperneck
    upperneck head
    lclavicle lhumerus
    lhumerus lradius
    lradius lwrist
    lwrist lhand lthumb
    lhand lfingers
    rclavicle rhumerus
    rhumerus rradius
    rradius rwrist
    rwrist rhand rthumb
    rhand rfingers
  end

#!OML:ASF E:\CV Data\Top Level 1\Subject 1\Session 1\player.ASF
:FULLY-SPECIFIED
:DEGREES
932
root 7.42257 15.9708 -10.1842 137.276 -78.0641 -152.487
lowerback 4.40301 1.46559 1.70483
upperback -1.02802 2.00554 -1.25726
thorax -3.42454 0.948121 -2.39741
lowerneck -13.0617 14.9991 -4.66658
upperneck 26.4645 18.1655 15.1735
head 8.3781 9.67454 7.60518
rclavicle -5.96354e-015 -2.22639e-014
rhumerus 171.385 134 95.2709
rradius 111.878
rwrist 19.9073
rhand -45.2058 48.7006
rfingers 7.12502
rthumb -17.9817 19.5118
lclavicle -5.96354e-015 -2.22639e-014
lhumerus -6.49992 -48.701 92.2647
lradius 115.848
lwrist -6.36881
lhand -39.1855 -5.64697
lfingers 7.12502
lthumb -12.1825 23.9783
rfemur -12.0284 7.00999 35.9581
rtibia 54.5765
rfoot -24.0111 1.97522
rtoes 15.4795
lfemur -12.8714 19.2003 -3.16186
ltibia 88.3039
lfoot -5.49191 -11.2152
ltoes -1.4352
933
root 7.35661 15.9408 -10.16 137.581 -77.7351 -153.351
lowerback 4.7278 1.49329 1.99082
upperback -0.883295 2.06788 -1.16798
thorax -3.44806 0.97561 -2.47785
lowerneck -13.0995 15.0432 -4.63262
upperneck 26.6593 18.2181 15.1413
head 8.45266 9.69367 7.61658
rclavicle 7.55382e-015 -1.11319e-014
rhumerus 172.2 134.613 95.4869
rradius 111.306
rwrist 19.7665
rhand -45.5959 49.2541
rfingers 7.12502
rthumb -18.357 20.1002
lclavicle 7.55382e-015 -1.11319e-014
lhumerus -4.4359 -48.5204 90.8663
lradius 114.997
lwrist -6.4015
lhand -39.3001 -5.89455
lfingers 7.12502
lthumb -12.293 23.7241
rfemur -11.3136 6.97415 36.0352
rtibia 54.8919
rfoot -24.4056 1.96191
rtoes 15.2377
lfemur -14.9603 19.5994 -3.01725
ltibia 89.1181
lfoot -6.69047 -10.4236
ltoes -1.75938
934
root 7.2925 15.9109 -10.1346 137.566 -77.4509 -153.898
lowerback 5.08912 1.49959 2.30842
upperback -0.72221 2.10587 -1.07072
thorax -3.47533 0.99051 -2.56723
lowerneck -13.1456 15.0844 -4.59835
upperneck 26.8458 18.2714 15.0923
head 8.52809 9.71141 7.6231
rclavicle -1.11319e-014 -3.81667e-014
rhumerus 172.884 135.277 95.5463
rradius 110.577
rwrist 19.5434
rhand -46.0238 49.7144
rfingers 7.12502
rthumb -18.7685 20.5998
lclavicle -1.11319e-014 -3.81667e-014
lhumerus -2.52427 -48.2471 89.5716
lradius 114.031
lwrist -6.29913
lhand -39.4041 -6.05169
lfingers 7.12502
lthumb -12.3933 23.5609
rfemur -10.5991 6.8705 36.1157
rtibia 55.1904
rfoot -24.7975 1.95602
rtoes 15.1169
lfemur -17.0623 19.8973 -2.94411
ltibia 89.6376
lfoot -7.82662 -9.63275
ltoes -2.34486
935
root 7.23001 15.8814 -10.1078 137.274 -77.2015 -154.174
lowerback 5.48618 1.49267 2.65089
upperback -0.546666 2.1308 -0.957251
thorax -3.50785 0.998582 -2.65393
lowerneck -13.1936 15.1187 -4.56927
upperneck 27.0212 18.3218 15.0254
head 8.60223 9.72533 7.62387
rclavicle 6.36111e-015 0
rhumerus 173.43 136.008 95.4602
rradius 109.699
rwrist 19.2072
rhand -46.4654 50.0631
rfingers 7.12502
rthumb -19.1933 20.9902
lclavicle 6.36111e-015 0
lhumerus -0.768878 -47.893 88.3934
lradius 112.946
lwrist -6.07413
lhand -39.4045 -6.10292
lfingers 7.12502
lthumb -12.3937 23.5097
rfemur -9.87515 6.72327 36.21
rtibia 55.4603
rfoot -25.1817 1.92173
rtoes 15.0163
lfemur -19.1555 20.0952 -2.93041
ltibia 89.8548
lfoot -8.9114 -8.9012
ltoes -3.2084
936
root 7.16901 15.8533 -10.0803 136.737 -76.9863 -154.203
lowerback 5.91046 1.47096 3.01369
upperback -0.360292 2.14039 -0.829803
thorax -3.54485 0.998684 -2.73716
lowerneck -13.2447 15.15 -4.53827
upperneck 27.186 18.3729 14.941
head 8.67582 9.7378 7.61846
rclavicle -2.42517e-014 -2.46493e-014
rhumerus 173.843 136.807 95.2318
rradius 108.69
rwrist 18.7154
rhand -46.8916 50.2774
rfingers 7.12502
rthumb -19.603 21.2457
lclavicle -2.42517e-014 -2.46493e-014
lhumerus 0.837671 -47.4616 87.3249
lradius 111.726
lwrist -5.7384
lhand -39.2753 -6.07528
lfingers 7.12502
lthumb -12.2691 23.5448
rfemur -9.14464 6.52802 36.3133
rtibia 55.6906
rfoot -25.5432 1.88759
rtoes 15.0174
lfemur -21.2297 20.1913 -2.97304
ltibia 89.7646
lfoot -9.93251 -8.24958
ltoes -4.29044
